<?xml version="1.0" encoding="UTF-8" standalone="no"?>
<svg width="119px" height="54px" viewBox="0 0 119 54" version="1.1" xmlns="http://www.w3.org/2000/svg" xmlns:xlink="http://www.w3.org/1999/xlink" xmlns:sketch="http://www.bohemiancoding.com/sketch/ns">
    <!-- Generator: Sketch 3.3.2 (12043) - http://www.bohemiancoding.com/sketch -->
    <title>btn_logo_home</title>
    <desc>Created with Sketch.</desc>
    <defs></defs>
    <g id="Assets-&amp;-Specs" stroke="none" stroke-width="1" fill="none" fill-rule="evenodd" sketch:type="MSPage">
        <g id="Assets-SVG" sketch:type="MSArtboardGroup" transform="translate(-474.000000, -35.000000)">
            <g id="btn_logo_home" sketch:type="MSLayerGroup" transform="translate(474.000000, 35.000000)">
                <path d="M23.8113333,21.6461842 C23.8113333,22.7730789 22.901125,23.6861053 21.7777083,23.6861053 L2.662625,23.6861053 C1.53920833,23.6861053 0.629,22.7730789 0.629,21.6461842 L0.629,2.47263158 C0.629,1.34644737 1.53920833,0.432710526 2.662625,0.432710526 L21.7777083,0.432710526 C22.901125,0.432710526 23.8113333,1.34644737 23.8113333,2.47263158 L23.8113333,21.6461842" id="Fill-7" fill="#880E4F" sketch:type="MSShapeGroup"></path>
                <path d="M55.4681667,12.0611842 C55.4681667,18.4822105 50.2782083,23.6875263 43.8762917,23.6875263 C37.474375,23.6875263 32.285125,18.4822105 32.285125,12.0611842 C32.285125,5.63802632 37.474375,0.432710526 43.8762917,0.432710526 C50.2782083,0.432710526 55.4681667,5.63802632 55.4681667,12.0611842" id="Fill-8" fill="#880E4F" sketch:type="MSShapeGroup"></path>
                <path d="M87.1242917,21.6461842 C87.1242917,22.7730789 86.2140833,23.6861053 85.0906667,23.6861053 L65.9755833,23.6861053 C64.8521667,23.6861053 63.94125,22.7730789 63.94125,21.6461842 L63.94125,2.47192105 C63.94125,1.34502632 64.8521667,0.431289474 65.9755833,0.431289474 L85.0906667,0.431289474 C86.2140833,0.431289474 87.1242917,1.34502632 87.1242917,2.47192105 L87.1242917,21.6461842" id="Fill-9" fill="#880E4F" sketch:type="MSShapeGroup"></path>
                <path d="M118.780417,12.0611842 C118.780417,18.4822105 113.591167,23.6875263 107.18925,23.6875263 C100.787333,23.6875263 95.5980833,18.4822105 95.5980833,12.0611842 C95.5980833,5.63802632 100.787333,0.432710526 107.18925,0.432710526 C113.591167,0.432710526 118.780417,5.63802632 118.780417,12.0611842" id="Fill-10" fill="#880E4F" sketch:type="MSShapeGroup"></path>
                <path d="M55.4681667,41.9793158 C55.4681667,48.4003421 50.2782083,53.6070789 43.8762917,53.6070789 C37.474375,53.6070789 32.285125,48.4003421 32.285125,41.9793158 C32.285125,35.5568684 37.474375,30.3515526 43.8762917,30.3515526 C50.2782083,30.3515526 55.4681667,35.5568684 55.4681667,41.9793158" id="Fill-11" fill="#00796B" sketch:type="MSShapeGroup"></path>
                <path d="M118.780417,41.9793158 C118.780417,48.4003421 113.591167,53.6070789 107.18925,53.6070789 C100.787333,53.6070789 95.5980833,48.4003421 95.5980833,41.9793158 C95.5980833,35.5568684 100.787333,30.3515526 107.18925,30.3515526 C113.591167,30.3515526 118.780417,35.5568684 118.780417,41.9793158" id="Fill-12" fill="#00796B" sketch:type="MSShapeGroup"></path>
                <path d="M87.1242917,41.9793158 C87.1242917,48.4003421 81.9350417,53.6070789 75.533125,53.6070789 C69.1312083,53.6070789 63.94125,48.4003421 63.94125,41.9793158 C63.94125,35.5568684 69.1312083,30.3515526 75.533125,30.3515526 C81.9350417,30.3515526 87.1242917,35.5568684 87.1242917,41.9793158" id="Fill-13" fill="#00796B" sketch:type="MSShapeGroup"></path>
                <path d="M23.8113333,41.9793158 C23.8113333,48.4003421 18.6220833,53.6070789 12.2201667,53.6070789 C5.81825,53.6070789 0.629,48.4003421 0.629,41.9793158 C0.629,35.5568684 5.81825,30.3515526 12.2201667,30.3515526 C18.6220833,30.3515526 23.8113333,35.5568684 23.8113333,41.9793158" id="Fill-14" fill="#00796B" sketch:type="MSShapeGroup"></path>
            </g>
        </g>
    </g>
</svg>