<?xml version="1.0" standalone="no"?>
<!DOCTYPE svg PUBLIC "-//W3C//DTD SVG 20010904//EN"
 "http://www.w3.org/TR/2001/REC-SVG-20010904/DTD/svg10.dtd">
<svg version="1.0" xmlns="http://www.w3.org/2000/svg"
 width="260.000000pt" height="260.000000pt" viewBox="0 0 260.000000 260.000000"
 preserveAspectRatio="xMidYMid meet">
<metadata>
Created by potrace 1.11, written by Peter Selinger 2001-2013
</metadata>
<g transform="translate(0.000000,260.000000) scale(0.100000,-0.100000)"
fill="#000000" stroke="none">
<path d="M175 2587 c-80 -32 -110 -58 -148 -130 l-22 -42 -3 -1095 c-3 -1241
-7 -1164 76 -1246 79 -78 9 -74 1232 -73 799 0 1093 4 1117 12 59 22 117 72
143 123 l25 49 0 1115 c0 1081 -1 1116 -19 1154 -11 21 -37 56 -58 77 -73 72
-14 69 -1227 68 -807 0 -1094 -4 -1116 -12z"/>
</g>
</svg>
